# xmcd CD database file
#
# Track frame offsets:
#	150
#	11624
#	26679
#	39616
#	53119
#	73409
#	85660
#	97535
#	114935
#	129921
#	146304
#	165802
#	181151
#	192399
#	206617
#	221598
#	233309
#	248172
#	267827
#	282690
#	299377
#	324712
#
# Disc length: 4615 seconds
#
# Revision: 2
# Processed by: cddbd v1.5.2PL0 Copyright (c) Steve Scherf et al.
# Submitted via: CDex 1.70beta2
#
DISCID=30120516
DTITLE=Robbie Williams - Swing When You're Winning
DYEAR=2001
DGENRE=Jazz
TTITLE0=Well Swing Intro - Have You Met Miss Jones?
TTITLE1=Mack The Knife
TTITLE2=Somethin' Stupid
TTITLE3=Do Nothing Till You Hear From Me
TTITLE4=It Was A Very Good Year
TTITLE5=Lets Face The Music And Dance
TTITLE6=Straighten Up And Fly Right
TTITLE7=Well, Did You Evah
TTITLE8=Mr. Bojangles
TTITLE9=The Lady Is A Tramp
TTITLE10=One For My Baby
TTITLE11=Things
TTITLE12=Ain't That A Kick In The Head
TTITLE13=They Can't Take That Away From Me
TTITLE14=I Will Talk And Hollywood Will Listen
TTITLE15=Have You Met Miss Jones
TTITLE16=Me And My Shadow
TTITLE17=Beyond The Sea
TTITLE18=That Old Black Magic
TTITLE19=That's Life
TTITLE20=Eternity (Orchestral Version)
TTITLE21=My Way
EXTD=YEAR: 2001
EXTT0=
EXTT1=
EXTT2=
EXTT3=
EXTT4=
EXTT5=
EXTT6=
EXTT7=
EXTT8=
EXTT9=
EXTT10=
EXTT11=
EXTT12=
EXTT13=
EXTT14=
EXTT15=
EXTT16=
EXTT17=
EXTT18=
EXTT19=
EXTT20=
EXTT21=
PLAYORDER=
